<mxfile host="app.diagrams.net" modified="2023-09-24T19:44:25.767Z" agent="Mozilla/5.0 (Windows NT 10.0; Win64; x64) AppleWebKit/537.36 (KHTML, like Gecko) Chrome/114.0.0.0 YaBrowser/23.7.5.734 Yowser/2.5 Safari/537.36" etag="wR2168LWFZOTI4nIi0RW" version="21.7.5" type="device">
  <diagram id="C5RBs43oDa-KdzZeNtuy" name="Page-1">
    <mxGraphModel dx="1477" dy="1603" grid="1" gridSize="10" guides="1" tooltips="1" connect="1" arrows="1" fold="1" page="1" pageScale="1" pageWidth="827" pageHeight="1169" math="0" shadow="0">
      <root>
        <mxCell id="WIyWlLk6GJQsqaUBKTNV-0" />
        <mxCell id="WIyWlLk6GJQsqaUBKTNV-1" parent="WIyWlLk6GJQsqaUBKTNV-0" />
        <mxCell id="dLy3oRbCXda_yBccTYGK-2" style="edgeStyle=orthogonalEdgeStyle;rounded=0;orthogonalLoop=1;jettySize=auto;html=1;entryX=0.5;entryY=0;entryDx=0;entryDy=0;" edge="1" parent="WIyWlLk6GJQsqaUBKTNV-1" source="dLy3oRbCXda_yBccTYGK-0" target="dLy3oRbCXda_yBccTYGK-1">
          <mxGeometry relative="1" as="geometry" />
        </mxCell>
        <mxCell id="dLy3oRbCXda_yBccTYGK-0" value="Начало" style="rounded=1;whiteSpace=wrap;html=1;" vertex="1" parent="WIyWlLk6GJQsqaUBKTNV-1">
          <mxGeometry x="200" y="40" width="120" height="30" as="geometry" />
        </mxCell>
        <mxCell id="dLy3oRbCXda_yBccTYGK-8" value="" style="edgeStyle=orthogonalEdgeStyle;rounded=0;orthogonalLoop=1;jettySize=auto;html=1;" edge="1" parent="WIyWlLk6GJQsqaUBKTNV-1" source="dLy3oRbCXda_yBccTYGK-1" target="dLy3oRbCXda_yBccTYGK-7">
          <mxGeometry relative="1" as="geometry" />
        </mxCell>
        <mxCell id="dLy3oRbCXda_yBccTYGK-1" value="Ввод&lt;br&gt;myStringArray[]" style="shape=parallelogram;perimeter=parallelogramPerimeter;whiteSpace=wrap;html=1;fixedSize=1;" vertex="1" parent="WIyWlLk6GJQsqaUBKTNV-1">
          <mxGeometry x="175" y="110" width="170" height="60" as="geometry" />
        </mxCell>
        <mxCell id="dLy3oRbCXda_yBccTYGK-11" value="Yes" style="edgeStyle=orthogonalEdgeStyle;rounded=0;orthogonalLoop=1;jettySize=auto;html=1;entryX=0.5;entryY=0;entryDx=0;entryDy=0;" edge="1" parent="WIyWlLk6GJQsqaUBKTNV-1" source="dLy3oRbCXda_yBccTYGK-4" target="dLy3oRbCXda_yBccTYGK-9">
          <mxGeometry relative="1" as="geometry" />
        </mxCell>
        <mxCell id="dLy3oRbCXda_yBccTYGK-15" value="No" style="edgeStyle=orthogonalEdgeStyle;rounded=0;orthogonalLoop=1;jettySize=auto;html=1;" edge="1" parent="WIyWlLk6GJQsqaUBKTNV-1" source="dLy3oRbCXda_yBccTYGK-4" target="dLy3oRbCXda_yBccTYGK-20">
          <mxGeometry relative="1" as="geometry">
            <mxPoint x="610" y="380" as="targetPoint" />
          </mxGeometry>
        </mxCell>
        <mxCell id="dLy3oRbCXda_yBccTYGK-4" value="i &amp;lt; size" style="rhombus;whiteSpace=wrap;html=1;" vertex="1" parent="WIyWlLk6GJQsqaUBKTNV-1">
          <mxGeometry x="185" y="340" width="150" height="80" as="geometry" />
        </mxCell>
        <mxCell id="dLy3oRbCXda_yBccTYGK-10" style="edgeStyle=orthogonalEdgeStyle;rounded=0;orthogonalLoop=1;jettySize=auto;html=1;" edge="1" parent="WIyWlLk6GJQsqaUBKTNV-1" source="dLy3oRbCXda_yBccTYGK-7" target="dLy3oRbCXda_yBccTYGK-4">
          <mxGeometry relative="1" as="geometry" />
        </mxCell>
        <mxCell id="dLy3oRbCXda_yBccTYGK-7" value="size = myStringArray.Length&lt;br&gt;i = 0&lt;br&gt;count = 0" style="whiteSpace=wrap;html=1;" vertex="1" parent="WIyWlLk6GJQsqaUBKTNV-1">
          <mxGeometry x="170" y="230" width="180" height="60" as="geometry" />
        </mxCell>
        <mxCell id="dLy3oRbCXda_yBccTYGK-14" value="Yes" style="edgeStyle=orthogonalEdgeStyle;rounded=0;orthogonalLoop=1;jettySize=auto;html=1;" edge="1" parent="WIyWlLk6GJQsqaUBKTNV-1" source="dLy3oRbCXda_yBccTYGK-9" target="dLy3oRbCXda_yBccTYGK-13">
          <mxGeometry relative="1" as="geometry" />
        </mxCell>
        <mxCell id="dLy3oRbCXda_yBccTYGK-17" value="No" style="edgeStyle=orthogonalEdgeStyle;rounded=0;orthogonalLoop=1;jettySize=auto;html=1;entryX=0.5;entryY=0;entryDx=0;entryDy=0;" edge="1" parent="WIyWlLk6GJQsqaUBKTNV-1" source="dLy3oRbCXda_yBccTYGK-9" target="dLy3oRbCXda_yBccTYGK-43">
          <mxGeometry relative="1" as="geometry">
            <mxPoint x="262.5" y="585" as="targetPoint" />
          </mxGeometry>
        </mxCell>
        <mxCell id="dLy3oRbCXda_yBccTYGK-9" value="myStringArray[i].Length &amp;lt;= 3" style="rhombus;whiteSpace=wrap;html=1;" vertex="1" parent="WIyWlLk6GJQsqaUBKTNV-1">
          <mxGeometry x="161.25" y="460" width="197.5" height="80" as="geometry" />
        </mxCell>
        <mxCell id="dLy3oRbCXda_yBccTYGK-44" style="edgeStyle=orthogonalEdgeStyle;rounded=0;orthogonalLoop=1;jettySize=auto;html=1;exitX=0.5;exitY=1;exitDx=0;exitDy=0;entryX=1;entryY=0.5;entryDx=0;entryDy=0;" edge="1" parent="WIyWlLk6GJQsqaUBKTNV-1" source="dLy3oRbCXda_yBccTYGK-13" target="dLy3oRbCXda_yBccTYGK-43">
          <mxGeometry relative="1" as="geometry" />
        </mxCell>
        <mxCell id="dLy3oRbCXda_yBccTYGK-13" value="count +=1" style="whiteSpace=wrap;html=1;" vertex="1" parent="WIyWlLk6GJQsqaUBKTNV-1">
          <mxGeometry x="404" y="470" width="120" height="60" as="geometry" />
        </mxCell>
        <mxCell id="dLy3oRbCXda_yBccTYGK-42" style="edgeStyle=orthogonalEdgeStyle;rounded=0;orthogonalLoop=1;jettySize=auto;html=1;entryX=0;entryY=0.5;entryDx=0;entryDy=0;exitX=0;exitY=0.5;exitDx=0;exitDy=0;" edge="1" parent="WIyWlLk6GJQsqaUBKTNV-1" source="dLy3oRbCXda_yBccTYGK-43" target="dLy3oRbCXda_yBccTYGK-4">
          <mxGeometry relative="1" as="geometry">
            <mxPoint x="225" y="600" as="sourcePoint" />
            <Array as="points">
              <mxPoint x="140" y="600" />
              <mxPoint x="140" y="380" />
            </Array>
          </mxGeometry>
        </mxCell>
        <mxCell id="dLy3oRbCXda_yBccTYGK-39" style="edgeStyle=orthogonalEdgeStyle;rounded=0;orthogonalLoop=1;jettySize=auto;html=1;entryX=0.5;entryY=0;entryDx=0;entryDy=0;" edge="1" parent="WIyWlLk6GJQsqaUBKTNV-1" source="dLy3oRbCXda_yBccTYGK-20" target="dLy3oRbCXda_yBccTYGK-23">
          <mxGeometry relative="1" as="geometry">
            <Array as="points">
              <mxPoint x="630" y="380" />
              <mxPoint x="630" y="640" />
              <mxPoint x="260" y="640" />
            </Array>
          </mxGeometry>
        </mxCell>
        <mxCell id="dLy3oRbCXda_yBccTYGK-20" value="cutArray = array[count]&lt;br&gt;i = 0&lt;br&gt;j = 0" style="rounded=0;whiteSpace=wrap;html=1;" vertex="1" parent="WIyWlLk6GJQsqaUBKTNV-1">
          <mxGeometry x="390" y="350" width="166" height="60" as="geometry" />
        </mxCell>
        <mxCell id="dLy3oRbCXda_yBccTYGK-21" value="Yes" style="edgeStyle=orthogonalEdgeStyle;rounded=0;orthogonalLoop=1;jettySize=auto;html=1;entryX=0.5;entryY=0;entryDx=0;entryDy=0;" edge="1" parent="WIyWlLk6GJQsqaUBKTNV-1" source="dLy3oRbCXda_yBccTYGK-23" target="dLy3oRbCXda_yBccTYGK-26">
          <mxGeometry relative="1" as="geometry" />
        </mxCell>
        <mxCell id="dLy3oRbCXda_yBccTYGK-22" value="No" style="edgeStyle=orthogonalEdgeStyle;rounded=0;orthogonalLoop=1;jettySize=auto;html=1;" edge="1" parent="WIyWlLk6GJQsqaUBKTNV-1" source="dLy3oRbCXda_yBccTYGK-23" target="dLy3oRbCXda_yBccTYGK-34">
          <mxGeometry relative="1" as="geometry">
            <mxPoint x="580" y="700" as="targetPoint" />
          </mxGeometry>
        </mxCell>
        <mxCell id="dLy3oRbCXda_yBccTYGK-23" value="i &amp;lt; size &amp;amp;&amp;amp; j &amp;lt; count" style="rhombus;whiteSpace=wrap;html=1;" vertex="1" parent="WIyWlLk6GJQsqaUBKTNV-1">
          <mxGeometry x="185" y="660" width="150" height="80" as="geometry" />
        </mxCell>
        <mxCell id="dLy3oRbCXda_yBccTYGK-24" value="Yes" style="edgeStyle=orthogonalEdgeStyle;rounded=0;orthogonalLoop=1;jettySize=auto;html=1;" edge="1" parent="WIyWlLk6GJQsqaUBKTNV-1" source="dLy3oRbCXda_yBccTYGK-26" target="dLy3oRbCXda_yBccTYGK-28">
          <mxGeometry relative="1" as="geometry" />
        </mxCell>
        <mxCell id="dLy3oRbCXda_yBccTYGK-25" value="No" style="edgeStyle=orthogonalEdgeStyle;rounded=0;orthogonalLoop=1;jettySize=auto;html=1;entryX=0.5;entryY=0;entryDx=0;entryDy=0;" edge="1" parent="WIyWlLk6GJQsqaUBKTNV-1" source="dLy3oRbCXda_yBccTYGK-26" target="dLy3oRbCXda_yBccTYGK-30">
          <mxGeometry relative="1" as="geometry" />
        </mxCell>
        <mxCell id="dLy3oRbCXda_yBccTYGK-26" value="myStringArray[i].Length &amp;lt;= 3" style="rhombus;whiteSpace=wrap;html=1;" vertex="1" parent="WIyWlLk6GJQsqaUBKTNV-1">
          <mxGeometry x="166.25" y="780" width="187.5" height="80" as="geometry" />
        </mxCell>
        <mxCell id="dLy3oRbCXda_yBccTYGK-27" style="edgeStyle=orthogonalEdgeStyle;rounded=0;orthogonalLoop=1;jettySize=auto;html=1;exitX=0.5;exitY=1;exitDx=0;exitDy=0;entryX=1;entryY=0.5;entryDx=0;entryDy=0;" edge="1" parent="WIyWlLk6GJQsqaUBKTNV-1" source="dLy3oRbCXda_yBccTYGK-28" target="dLy3oRbCXda_yBccTYGK-30">
          <mxGeometry relative="1" as="geometry" />
        </mxCell>
        <mxCell id="dLy3oRbCXda_yBccTYGK-28" value="cutArray[j] = myStringArray[i]&lt;br&gt;j +=1" style="whiteSpace=wrap;html=1;" vertex="1" parent="WIyWlLk6GJQsqaUBKTNV-1">
          <mxGeometry x="400" y="790" width="176" height="60" as="geometry" />
        </mxCell>
        <mxCell id="dLy3oRbCXda_yBccTYGK-33" style="edgeStyle=orthogonalEdgeStyle;rounded=0;orthogonalLoop=1;jettySize=auto;html=1;exitX=0;exitY=0.5;exitDx=0;exitDy=0;entryX=0;entryY=0.5;entryDx=0;entryDy=0;" edge="1" parent="WIyWlLk6GJQsqaUBKTNV-1" source="dLy3oRbCXda_yBccTYGK-30" target="dLy3oRbCXda_yBccTYGK-23">
          <mxGeometry relative="1" as="geometry">
            <Array as="points">
              <mxPoint x="140" y="925" />
              <mxPoint x="140" y="700" />
            </Array>
          </mxGeometry>
        </mxCell>
        <mxCell id="dLy3oRbCXda_yBccTYGK-30" value="i +=1&amp;nbsp;" style="whiteSpace=wrap;html=1;" vertex="1" parent="WIyWlLk6GJQsqaUBKTNV-1">
          <mxGeometry x="220" y="910" width="80" height="30" as="geometry" />
        </mxCell>
        <mxCell id="dLy3oRbCXda_yBccTYGK-41" style="edgeStyle=orthogonalEdgeStyle;rounded=0;orthogonalLoop=1;jettySize=auto;html=1;" edge="1" parent="WIyWlLk6GJQsqaUBKTNV-1" source="dLy3oRbCXda_yBccTYGK-34" target="dLy3oRbCXda_yBccTYGK-35">
          <mxGeometry relative="1" as="geometry" />
        </mxCell>
        <mxCell id="dLy3oRbCXda_yBccTYGK-34" value="Вывод&lt;br&gt;cutArray[]" style="shape=parallelogram;perimeter=parallelogramPerimeter;whiteSpace=wrap;html=1;fixedSize=1;" vertex="1" parent="WIyWlLk6GJQsqaUBKTNV-1">
          <mxGeometry x="391" y="670" width="170" height="60" as="geometry" />
        </mxCell>
        <mxCell id="dLy3oRbCXda_yBccTYGK-35" value="Конец" style="rounded=1;whiteSpace=wrap;html=1;" vertex="1" parent="WIyWlLk6GJQsqaUBKTNV-1">
          <mxGeometry x="610" y="685" width="120" height="30" as="geometry" />
        </mxCell>
        <mxCell id="dLy3oRbCXda_yBccTYGK-43" value="i +=1&amp;nbsp;" style="whiteSpace=wrap;html=1;" vertex="1" parent="WIyWlLk6GJQsqaUBKTNV-1">
          <mxGeometry x="220" y="585" width="80" height="30" as="geometry" />
        </mxCell>
      </root>
    </mxGraphModel>
  </diagram>
</mxfile>
